<?xml version="1.0" encoding="UTF-8"?>
<svg width="16px" height="16px" viewBox="0 0 16 16" version="1.1" xmlns="http://www.w3.org/2000/svg" xmlns:xlink="http://www.w3.org/1999/xlink">
    <!-- Generator: Sketch 48.2 (47327) - http://www.bohemiancoding.com/sketch -->
    <title>I_black Copy</title>
    <desc>Created with Sketch.</desc>
    <defs></defs>
    <g id="Splash-1" stroke="none" stroke-width="1" fill="none" fill-rule="evenodd" transform="translate(-574.000000, -482.000000)">
        <path d="M590,494 C590,496.056 588.056,498 586,498 L578,498 C575.944,498 574,496.056 574,494 L574,486 C574,483.944 575.944,482 578,482 L586,482 C588.056,482 590,483.944 590,486 L590,494 Z M582,494 C584.206,494 586,492.206 586,490 C586,487.794 584.206,486 582,486 C579.794,486 578,487.794 578,490 C578,492.206 579.794,494 582,494 Z M586.145,486.852 C586.675,486.852 587.105,486.422 587.105,485.892 C587.105,485.362 586.675,484.932 586.145,484.932 C585.615,484.932 585.185,485.362 585.185,485.892 C585.185,486.422 585.615,486.852 586.145,486.852 Z M582,492 C580.895431,492 580,491.104569 580,490 C580,488.895431 580.895431,488 582,488 C583.104569,488 584,488.895431 584,490 C584,491.104569 583.104569,492 582,492 Z" id="I_black-Copy" fill="#FFFFFF"></path>
    </g>
</svg>